<?xml version="1.0" encoding="utf-8"?>
<!-- Generator: Adobe Illustrator 19.0.0, SVG Export Plug-In . SVG Version: 6.00 Build 0)  -->
<svg version="1.1" id="Mumbaï_café_-_logo_3_xA0_Image_1_"
	 xmlns="http://www.w3.org/2000/svg" xmlns:xlink="http://www.w3.org/1999/xlink" x="0px" y="0px" viewBox="0 0 362.6 379.4"
	 style="enable-background:new 0 0 362.6 379.4;" xml:space="preserve">
<style type="text/css">
	.st0{fill:#FFFFFF;}
</style>
<g>
	<path class="st0" d="M326.2,163.4c3.8,2.6,7.6,5.1,11.3,7.6c0.6,0.4,1.1,0.8,1.6,1.2c3.3,2.7,3.9,6.3,1.3,9.7
		c-3.9,5-7.9,9.9-12,14.8c-1.3,1.5-2.6,3-3.9,4.5c-0.8,0.9-0.9,1.8-0.1,2.8c7.3,8.8,11.7,19.3,17.1,29.2c0.6,1,0.9,2.3,1,3.4
		c0.5,3.1-1.1,5.2-3.6,6.7c-6.6,4-13.7,6.5-21.2,8c-3.8,0.8-7.6,1.6-11.5,2.4c0.2,0.8,0.4,1.5,0.6,2.2c2.3,6.6,2.4,13.3,1.7,20.2
		c-0.3,2.7-1.7,4.4-4.4,5.1c-0.5,0.1-1.1,0.3-1.7,0.5c0.3,3.2,0.7,6.2,1,9.3c0.9,8.3,0.5,16.6-0.1,24.9c-0.2,2.4-1.5,3.4-4,3.6
		c-8.4,0.7-16.4-1.1-24.4-3.6c-1.3-0.4-2.6-0.7-3.9-1.2c-1.2-0.4-1.9,0-2.3,1.1c-0.9,2.2-1.9,4.4-2.8,6.6c-0.4,1-0.9,1.9-1.5,2.8
		c-1.7,2.6-3.9,3.6-6.9,2.8c-1.7-0.5-3.3-1.3-4.9-2c-0.7-0.3-1.2-0.7-2-1.2c-0.8,3.6-1.5,7-2.3,10.4c-1.8,7.5-4.6,14.7-7.9,21.6
		c-1.8,3.8-4.6,4.9-8.4,3.1c-8.5-4-16.6-8.5-23-15.5c-0.9-0.9-1.6-1-2.5-0.1c-1.8,1.8-3.7,3.4-5.5,5.2c-3.3,3.2-7.5,3.1-10.4-0.6
		c-4.5-5.9-7-12.6-7.4-20c-0.1-1.8,0-3.7,0-5.4c-2.4-1.1-2.9-0.7-2.9,1.8c-0.1,8.7-2,16.9-7.7,23.8c-2.8,3.4-6.3,3.6-9.6,0.7
		c-2-1.7-4-3.6-5.9-5.4c-1-0.9-1.7-1-2.6,0c-6.7,6.8-14.9,11.5-23.4,15.7c-3.3,1.6-6.4,0.6-8.1-2.7c-4.5-8.9-7.7-18.3-9.5-28.2
		c-0.3-1.5-0.4-3-0.7-4.8c-1.2,0.8-2.1,1.4-3,2c-2,1.4-4.1,1.9-6.5,1.8c-1.4-0.1-2.5-0.6-3.5-1.8c-2.5-3.1-3.8-6.7-5.1-10.4
		c-0.8-2.3-0.8-2.2-3.2-1.5c-5.4,1.5-10.7,3.3-16.2,4.3c-3.9,0.7-7.9,0.6-11.9,0.5c-2.6,0-3.9-1.5-4-4.1c-0.2-9.6-1-19.3,0.5-28.9
		c0.2-1.6,0.5-3.2,0.8-5c-0.8-0.2-1.7-0.4-2.5-0.6c-2.4-0.6-3.4-1.7-3.5-4.2c-0.2-3.7-0.4-7.3-0.5-11c-0.1-3.6,0.8-6.9,2.2-10.2
		c0.3-0.6,0.4-1.2,0.7-2.1c-2.4-0.4-4.6-0.8-6.8-1.1c-6.8-1-13.4-2.6-19.6-5.5c-2.8-1.3-5.5-3-8.1-4.7c-2.4-1.6-3.2-4.8-2-7.6
		c4.8-10.4,9.9-20.7,17.5-29.4c0.1-0.1,0.1-0.2,0.2-0.2c1.9-2.3,1.7-1.9,0-3.9c-5.2-6-10.4-11.9-15.5-18c-1-1.2-1.6-2.8-2-4.3
		c-0.5-2.2,0-4.2,2.1-5.6c3.6-2.5,7.2-5,10.8-7.6c0.9-0.7,1.9-1.2,3.1-2c-1.8-2-3.5-4-5.3-5.9c-6.3-6.2-11.2-13.4-15.3-21.2
		c-0.4-0.7-0.9-1.4-1.4-2.1c-1.9-2.6-1.5-6.3,0.9-8.5c0.4-0.4,0.9-0.8,1.3-1.1c9.4-6.1,19.1-11.5,30.5-13c2.5-0.3,5.1,0,7.9,0
		c-0.2-0.9-0.5-1.6-0.6-2.4c-0.3-2.1-0.8-4.1-0.8-6.2c0-2.9,1.4-4.2,4.2-4.9c3.7-0.8,7.4-0.7,11.1-0.2c1.6,0.2,3.1,0.4,4.9,0.7
		c-0.1-0.6-0.2-1-0.3-1.4c-4-14.2-5.5-28.6-3.3-43.2c0.4-2.9,1.8-3.8,4.8-3.5c7.3,0.8,14.5,2.2,21.5,4.3c0.5,0.1,1,0.2,1.7,0.3
		c0.7-3.1,1.4-6.1,2.2-9.2c1.1-4.5,2.3-9,3.5-13.5c0.8-2.9,1.9-3.7,4.9-3.5c2.1,0.1,4.2,0.3,6.2,0.9c4.4,1.3,8.8,2.8,13.1,4.3
		c4.3,1.5,8.3,3.8,11.9,6.9c0.8-1,1.6-1.9,2.4-2.8c4.4-5.3,8.8-10.7,13.3-15.9c0.9-1.1,2-2.2,3.1-3.2c1.4-1.2,2.9-1.3,4.3-0.1
		c1.4,1.1,2.7,2.3,3.8,3.7c3.5,4.2,7,8.5,10.4,12.8c0.8,1,1.7,1.2,2.8,1.3c3.1,0.4,5.1-0.9,6.9-3.3c3.5-4.6,7.3-8.9,11.1-13.2
		c2.6-3,4.4-3,6.9,0c5.2,6.3,10.4,12.6,15.7,18.8c0.5,0.6,0.9,1.1,1.5,1.8c0.7-0.5,1.3-0.9,1.9-1.4c3.4-2.6,7.1-4.4,11.1-5.8
		c3.4-1.1,6.7-2.4,10.2-3.3c2.8-0.7,5.6-1.2,8.5-1.5c2.5-0.3,3.6,0.5,4.4,3c0.8,2.4,1.6,4.9,2.2,7.4c1.1,4.7,2.1,9.5,3.2,14.2
		c0.1,0.4,0.2,0.8,0.4,1.3c3.5-0.8,7-1.8,10.4-2.4c4.2-0.8,8.5-1.5,12.7-2.1c2.7-0.4,4.5,0.9,4.7,3.8c0.4,6,0.9,12,0.8,18
		c-0.1,8.5-2,16.7-4,24.9c-0.1,0.3-0.1,0.6-0.2,1c2.5-0.1,5-0.3,7.4-0.3c2.6,0,5.1,0,7.7,0.3c3.3,0.3,4.9,2.3,4.7,5.7
		c-0.1,2.4-0.5,4.8-0.7,7.3c0.4,0.1,0.7,0.2,1,0.2c8.7-0.1,16.7,2.2,24.3,6.4c3.4,1.9,6.8,3.7,10.2,5.6c0.3,0.2,0.5,0.3,0.8,0.5
		c5.2,3.5,5.7,6.3,2.9,11.6c-4.9,9.3-11.1,17.5-18.4,25c-0.8,0.9-1.6,1.8-2.4,2.7C326.3,163.1,326.3,163.2,326.2,163.4z
		 M122.9,223.3c-0.1,0-0.1,0-0.2,0c0-3-0.1-6,0-9c0.1-2.1,1.7-3.5,3.5-2.6c2.5,1.1,4.2,0.3,5.9-1.2c0.5-0.4,1.1-0.7,1.6-1
		c3.7-2.4,7.6-2.9,11.8-1.3c4.6,1.8,9.3,3.6,14,5.1c3.2,1,6.4,2.2,9.7,2.4c7.3,0.4,14.6,0.3,21.8,0.4c4.1,0.1,8.1-0.7,12-2.1
		c5.1-1.8,10.2-3.5,15.2-5.5c5.4-2.2,10.1-1.1,14.5,2.3c1.7,1.3,3.4,1.9,5.5,1c1.6-0.7,3,0.1,3.5,1.8c0.2,0.7,0.3,1.5,0.3,2.3
		c-0.1,5.1-0.2,10.2-0.3,15.4c0,2.6,0.8,3.3,3.5,3c3.8-0.5,6.9-2.4,9.5-5.1c6.3-6.6,8.7-14.9,10.5-23.4c0.2-1.1-0.3-1.6-1.4-1.5
		c-1.2,0.1-2.4,0.3-3.6,0.5c-3.8,0.6-7.5,1.6-11.4,1c-5.1-0.8-9.6-3.1-13.8-6c-2.5-1.8-5-3.7-7.6-5.3c-5.3-3.5-11.4-1.9-14.5,3.5
		c-0.6,1-1.2,2.1-2,3c-4.1,5.1-11.2,7-17.4,4.8c-1.1-0.4-2.3-0.8-3.4-1.2c-2.3-0.8-2.7-0.7-4.2,1c-0.6,0.7-1.3,1.4-2,2
		c-1.3,1.2-2.1,1.2-3.4,0c-0.8-0.7-1.5-1.5-2.1-2.3c-1-1.2-2.1-1.5-3.6-0.9c-1.8,0.7-3.7,1.4-5.6,2c-1.1,0.3-2.3,0.6-3.4,0.5
		c-6-0.6-11-3-14-8.5c-3.4-6.1-9.6-7.6-15.3-3.6c-3.1,2.1-6,4.3-9.1,6.4c-6.6,4.3-13.6,6-21.4,3.9c-1.5-0.4-3.2-0.6-4.8-0.7
		c-1.7-0.2-2.1,0.3-1.7,2c0.7,2.7,1.3,5.4,2.1,8c1.6,5.1,3.8,9.8,7.3,13.9c3,3.5,6.6,5.8,11.3,6c2.2,0.1,2.7-0.4,2.6-2.6
		C122.9,228.7,122.9,226,122.9,223.3z M140.3,127c-3,0.2-6.7,0.2-10.3,0.7c-6.7,0.9-12.7,3.7-18.5,7c-5.8,3.4-9.8,8.4-11.9,14.8
		c-2.2,6.6-2.5,13.4-1.8,20.3c0.5,4.8,2,9.3,4.5,13.4c0.6,1,1.4,1.5,2.7,1.2c4-0.8,8-1.4,12.1-2.1c2.3-0.4,2.4-0.6,1.8-2.9
		c-1.4-5-2.5-10-1.4-15.1c1.8-9,7-15,15.8-18c8.1-2.7,15.4-1.8,22.2,3.4c1,0.7,1.9,1.4,2.9,2.1c1.7,1.2,2,1.1,3.5-0.2
		c4.4-4.1,7.1-9,7.7-15c0.5-4.6,0-9-2.8-12.9c-0.8-1.1-1.6-1.4-2.8-0.8C156.7,126.4,148.9,127.3,140.3,127z M267.2,162.7
		c-0.2-1.8-0.4-5.1-1-8.3c-1.1-6.5-3.6-12.3-8.9-16.5c-6-4.7-12.7-8-20.1-9.8c-5.3-1.3-10.7-1-16.1-1c-6.8,0-13.4-1.1-19.7-3.8
		c-2.4-1-3-0.8-4.2,1.6c-5.4,9.7-0.6,21.8,6.1,27.3c0.9,0.7,1.8,0.7,2.7,0c1.2-0.9,2.4-1.8,3.7-2.7c6.1-4.5,12.8-5.7,20.1-3.6
		c11.7,3.3,17.9,11.4,17.6,23.5c-0.1,3.5-1.1,7-1.7,10.5c-0.3,1.8-0.1,2.3,1.7,2.6c3.9,0.7,7.7,1.3,11.6,2c2.5,0.4,2.7,0.3,4-1.9
		C266,176.8,267.1,170.6,267.2,162.7z M59.7,210.7c-4.2-2.3-8.3-4.5-12.3-6.6c-0.5-0.2-1.6,0.1-2.1,0.5c-2.3,2.4-4.7,4.7-6.6,7.3
		c-5.4,7.4-9.3,15.7-13.3,24c-0.6,1.2-0.3,2.1,0.9,2.8c2.7,1.5,5.3,3.1,8.2,4.4c6.6,2.9,13.6,4.5,20.7,5.4c6.1,0.8,6.1,0.8,9-4.6
		c3.7-7.1,9-12.5,16.4-15.8c0.8-0.3,1.5-0.9,2.3-1.4c-0.5-0.4-0.8-0.6-1-0.9c-2.3-2.3-4.6-4.1-8-1.9c0.8-0.7,1.6-1.4,2.5-2
		c0.3-0.3,0.7-0.6,0.7-0.9c0.1-1.7-2.1-3.5-3.8-3.1c-2.1,0.5-4.3,1-6.4,1.5c-1.3,0.3-2.5,0.5-3.8,0.8c0-0.1-0.1-0.3-0.1-0.4
		c3.9-1.2,7.7-2.3,11.6-3.5c-0.4-1-0.5-1.9-1-2.5c-0.3-0.5-1-1.1-1.6-1.1c-4.8,0-9.6-1-14.8,0.2C58.1,211.9,58.7,211.5,59.7,210.7z
		 M59.4,129.4c0.9,0.4,1.8,0.8,2.7,1.1c0.3,0.1,0.9,0.2,1,0.1c0.2-0.3,0.2-0.8,0.1-1.1c-1.1-3.8-2.2-7.5-3.5-11.2
		c-0.3-0.8-1.5-1.7-2.3-1.8c-5.7-0.3-11.4-0.2-16.9,1.6c-7.3,2.4-13.6,6.6-20.1,10.5c-1.3,0.8-1.6,2-0.9,3.3
		c2.6,4.5,4.7,9.4,7.9,13.5c4.2,5.4,9.3,10.1,13.9,15.1c1.7,1.9,3.7,2.3,6.1,1.8c3.1-0.7,6.1-1.3,9.2-1.8c2.2-0.4,4.4-0.6,6.7-0.9
		c-0.1-1.1,0-2-0.2-3c-0.2-1-0.3-2-0.8-2.8c-0.5-0.8-1.4-1.6-2.2-2.1c-0.7-0.5-1.7-0.7-2.5-1c0-0.1,0.1-0.2,0.1-0.3
		c1,0.3,2,0.7,3.2,1.1c-0.1-1.2-0.3-2.2-0.3-3.1c-0.1-2.4,0.4-2.9,2.8-2.8c2.6,0.1,5.2,0.2,7.9,0.4c-0.8-2.2-2-3.8-4.2-4.6
		c-3-1-6-2.2-9-3.3c0-0.1,0-0.1,0.1-0.2c3,0.7,6,1.4,9.2,2.1C66.4,134.5,62.7,132.2,59.4,129.4z M304.7,211.9
		c-3.9,0.1-7.9,0.3-12,0.5c-0.6,0-1.3,0.5-1.6,1c-0.5,0.9-0.8,2-1.2,3.2c3.2,0.9,6.1,1.8,9.1,2.7c-1.9,0-3.6-0.4-5.4-0.7
		c-5.2-1-3.7-1.9-6.5,3c0,0.1,0,0.2-0.1,0.7c0.5,0.4,1.2,0.8,1.8,1.3c-4.1-1.6-5,2.2-7.3,3.6c0.2,0.3,0.3,0.4,0.4,0.4
		c1.1,0.7,2.2,1.4,3.4,2c6.2,3.4,10.7,8.5,13.8,14.8c0.3,0.6,0.6,1.1,0.9,1.7c1.3,2.4,2.7,3.1,5.4,2.7c2.2-0.3,4.5-0.6,6.7-1
		c8.4-1.4,16.4-3.9,23.7-8.4c2.2-1.3,2.5-2.2,1.3-4.4c-3.7-6.9-7.3-13.9-11.1-20.8c-1.9-3.5-4.5-6.5-7.5-9.2
		c-1.3-1.2-2.5-1.4-4.1-0.4c-2.8,1.7-5.8,3.2-8.6,4.8c-0.7,0.4-1.4,0.8-2.2,1.3C304,211.3,304.5,211.7,304.7,211.9z M305.1,150.2
		c-0.7,0.8-2.1,1.5-2.5,2.6c-0.8,2.1-1.1,4.4-1.6,6.6c0.4,0.2,0.6,0.3,0.8,0.3c4.8,0.1,9.5,1.2,14.2,2.5c2.1,0.6,4,0,5.6-1.6
		c2.6-2.7,5.3-5.4,7.9-8.1c5.8-5.9,10.1-12.8,13.6-20.2c0.9-1.8,0.7-2.8-0.8-3.8c-6.3-4.2-12.7-8.1-20-10.4
		c-5.3-1.7-10.7-2.5-16.2-1.9c-1.9,0.2-2.9,1.2-3.4,3c-0.9,3.2-1.8,6.3-2.7,9.5c-0.2,0.6-0.1,1.3-0.2,2.2c1.3-0.5,2.4-0.9,3.4-1.3
		c-3.2,2.8-6.8,5.1-7.6,10.1c2.3-0.5,4.4-1,6.5-1.5c-4.1,2-9.1,2.7-10.9,8.2c0.4,0,0.7-0.1,1-0.1c3.1-0.3,6.1-0.8,9.2-1
		c2.3-0.1,3.2,1.3,2.7,3.6c-0.1,0.5-0.2,1-0.3,1.6C304.5,150.3,305,150.2,305.1,150.2z M98.2,77c0.1-0.1,0.3-0.2,0.4-0.3
		c2.1,2.6,4.2,5.3,6.4,8c0.1-0.2,0.3-0.4,0.4-0.6c1.5-3.3,5.5-4,8.4-1c1.2,1.2,2.6,2.1,4,3.3c1-2.7,2-5.3,2.9-7.9
		c0.1-0.4-0.1-1-0.4-1.5c-5-8.1-11.9-14-21-16.7c-7.3-2.2-14.9-3.4-22.3-5c-1.2-0.3-2,0.2-2.1,1.5c-0.3,4.1-0.8,8.2-0.8,12.4
		c0.1,9.6,2.1,19,4.5,28.3c0.8,3.1,2.5,5.5,5.7,6.5c1.2,0.4,2.4,1,3.6,1.4c1.2,0.5,2.5,1,3.9,1.5c-0.2-2.2-0.5-4-0.6-5.9
		c-0.2-2.5,0.4-3.1,2.9-3.1c2.1,0,4.3,0,6.4,0c0.4,0,1-0.2,1.2-0.5c0.9-1.8,0.3-4.5-1.3-6c-0.3-0.3-0.6-0.7-0.9-1.1
		c0.1-0.1,0.1-0.1,0.2-0.2c0.8,0.6,1.5,1.1,2.4,1.7c0.6-1.5,1-2.8,1.5-4.1c0.6-1.3,0.5-2.3-0.4-3.5C101.5,81.9,99.9,79.4,98.2,77z
		 M273,106.1c2.4-1,4.6-1.9,6.8-2.9c2.1-0.9,3.4-2.5,4-4.8c0.6-2.3,1.2-4.6,1.8-7c2.9-11.4,4.4-22.9,2.4-34.6
		c-0.2-1.4-0.9-1.9-2.2-1.6c-6.3,1.3-12.7,2.5-19,4c-9.5,2.3-17.1,7.7-22.7,15.7c-0.5,0.7-0.9,1.8-0.7,2.5c1,3,2.2,5.8,3.4,8.9
		c1.9-1.7,3.8-3.3,5.6-5c1.6-1.4,2.2-1.5,4-0.2c0.9,0.7,1.8,1.4,2.6,2.1c2-2.3,3.9-4.6,5.8-6.9c0.1,0.1,0.3,0.2,0.4,0.3
		c-1.6,2.2-3.2,4.3-4.8,6.5c-0.3,0.5-0.6,1.3-0.5,1.8c0.6,1.9,1.5,3.7,2.2,5.5c0.4-0.1,0.8-0.3,0.7-0.2c-0.1,1.3-0.3,2.6-0.4,4
		c0,0.8,0.3,1.7,0.3,2.5c0,1.4,0.7,1.5,1.8,1.4c2-0.2,4.1-0.4,6.1-0.5c2.2-0.1,2.9,0.7,2.7,2.9C273.3,102.4,273.2,104.1,273,106.1z
		 M65.9,190.5c0.1-0.2,0.2-0.4,0.3-0.5c-1-0.7-1.9-1.6-3-2.1c-1.6-0.7-2.1-1.9-1.9-3.5c0.1-1.6,1.3-2.2,2.6-2.6
		c0.8-0.2,1.7-0.4,2.5-0.6c0-0.1,0-0.2,0-0.3c-2.4-0.6-4.7-1.3-7.1-1.9c0-0.1,0.1-0.2,0.1-0.4c3,0.5,6.1,1,9.1,1.5
		c0.1-0.2,0.1-0.3,0.1-0.3c-2.3-5.6-3.9-11.5-4.7-17.5c0-0.3-0.7-0.8-1-0.8c-3.5,0.3-7,0.4-10.4,1.1c-9.6,2.2-17.7,7.6-25.7,13.2
		c-1.6,1.1-1.6,2.1-0.1,4c4.5,5.4,8.9,10.9,13.6,16.1c6.7,7.5,15,12.5,25,14.3c2.5,0.5,5,0.4,7.8,0.6c-2-6.3-3.8-12.1-5.8-17.8
		c-0.3-0.8-1.6-1.5-2.5-1.7c-3.9-0.9-7.8-1.7-11.7-2.5c-0.6-0.1-1.1-0.3-1.7-0.4c0-0.1,0-0.2,0.1-0.3
		C56.3,188.9,61.1,189.7,65.9,190.5z M291.9,210.7c1.1,0,1.9,0,2.7,0c0.5,0,0.9-0.1,1.4-0.1c7.8-1.2,14.7-4.3,20.9-9.2
		c8-6.2,13.8-14.4,19.7-22.5c0.9-1.2,0.5-2.3-0.6-3.1c-7.1-5.2-14.5-9.9-23-12.6c-3.4-1.1-6.8-1.8-10.3-1.7c-0.5,0-1.3,0.4-1.4,0.8
		c-1.6,5.7-3,11.4-4.6,17.3c2.4-0.4,4.6-0.7,6.9-1c0,0.1,0,0.2,0.1,0.4c-2.2,0.6-4.4,1.2-6.7,1.7c1.4,0.5,2.8,0.7,4.1,1
		c1.4,0.3,2.3,1.3,2.4,2.7c0.1,1.5-0.3,2.6-1.8,3.3c-1,0.4-1.9,1.2-2.8,1.7c0.1,0.2,0.2,0.4,0.2,0.6c4.1-0.7,8.2-1.3,12.3-2
		c0,0.1,0.1,0.3,0.1,0.4c-0.6,0.2-1.2,0.3-1.8,0.5c-3.3,0.7-6.6,1.3-9.8,2c-1.2,0.2-2,0.8-2.4,2.1c-1.3,4.1-2.7,8.2-4.1,12.4
		C292.8,207.1,292.4,208.9,291.9,210.7z M171.8,167.9c0,0-0.3-0.3-0.7-0.5c-3.2-1.6-5.3-4.3-7.6-6.9c-2.2-2.6-4.5-5.2-6.9-7.5
		c-4.9-4.8-10.7-7.1-17.7-6c-9.9,1.6-19.7,8-20.2,20.5c-0.3,6.9,1.3,13.2,6.4,18.2c1.8,1.7,3.9,3.2,5.8,4.8c2.4,1.9,5.1,2.3,8.1,1.4
		c2.7-0.9,5.5-0.8,8.1,0.2c3.2,1.3,3.3,1.3,4.6-2c2.4-6,6.4-9.9,13.1-10.4c0.5,0,1.1-0.1,1.5-0.4c0.4-0.2,0.9-0.6,1.1-1
		C168.9,174.9,170.3,171.5,171.8,167.9z M164.7,203.8c-0.6-1.8-1.3-3.4-1.8-5.1c-0.7-2.8,0.8-5.8,3.2-6.9c2.4-1.1,5-0.2,6.8,2.3
		c0.9,1.3,1.8,2.6,2.7,3.9c1.6,2.3,3.1,4.6,4.7,6.8c1.3,1.8,2.4,1.7,3.8,0c0.7-0.9,1.4-2,2.1-3c2-2.9,4-5.8,6.1-8.5
		c1.1-1.5,2.8-2.1,4.8-1.8c3.2,0.5,5.3,4.1,4.4,7.6c-0.3,1.2-0.9,2.4-1.5,3.6c-0.5,1-0.3,1.8,0.9,1.7c3-0.2,5.9-1,8-3.5
		c2.7-3.3,3.6-7,2.1-11c-1.6-4.2-4.5-7.1-9.1-7.7c-2.1-0.3-4.3-0.3-6.5-0.4c-0.1-1.1-0.2-2.3-0.3-3.5c-0.3-6.2-6-12-12.2-12.3
		c-6.3-0.3-12.3,4.7-13.3,11c-0.2,1.7-0.4,3.4-0.7,5.1c-2,0-3.9-0.1-5.7,0c-8.4,0.6-13.3,10.3-8.8,17.5
		C156.7,202.9,161.4,204.9,164.7,203.8z M192.9,168c1.2,2.8,2.5,5.5,3.4,8.3c0.7,2.2,2,3.4,4.3,3.6c5.1,0.4,8.7,3.1,10.9,7.6
		c0.7,1.5,1.4,2.9,2,4.4c0.5,1.1,1.3,1.4,2.3,0.8c3.4-1.9,7-1.8,10.6-0.7c1.9,0.6,3.8,0.4,5.5-0.6c7.7-4.5,13.2-10.5,13.9-19.8
		c0.5-6.8-0.7-13.1-5.9-18c-4-3.7-8.8-5.8-14.1-6.7c-6.4-1.1-11.9,0.7-16.6,5c-1.7,1.5-3.2,3.2-4.8,4.8c-3.7,3.8-6.6,8.4-11.5,11
		C193,167.8,193,168,192.9,168z M126.6,297.9c-0.4,0.4-0.6,0.6-0.8,0.8c-2.3,3.3-4.5,6.7-6.8,10c-2.4,3.6-3.1,7.5-2.4,11.7
		c0.7,4.1,1.5,8.2,2.5,12.3c1.7,7.4,4.2,14.6,7.9,21.3c1.1,2,1.7,2.1,3.6,1.1c3.2-1.7,6.5-3.5,9.6-5.4c4.6-2.8,8.9-6.1,12.5-10.1
		c0.8-0.8,1.2-1.7,0.5-2.8c-2.9-4.4-5.7-8.9-8.6-13.3c-0.7-1-1.3-0.9-1.9,0c-0.5,0.7-0.9,1.4-1.4,2.1c1.1-4.2,1.3-8.1-1.8-11.7
		c-2.2,3.2-2.1,7.1-3.9,10.3c0.9-4,1.8-7.9,2.7-12.1c-0.6,0.3-1,0.3-1.3,0.6c-2.7,2.2-5.4,0.5-6.3-2.4c-0.7-2-1.4-4.1-2.1-6.1
		C128.1,302.1,127.3,300.1,126.6,297.9z M221.7,325.5c-0.4-0.7-0.9-1.4-1.3-2.1c-0.6-0.9-1.2-0.9-1.8,0c-2.7,4.3-5.5,8.6-8.2,12.8
		c-0.8,1.2-0.6,2.4,0.4,3.4c1.3,1.3,2.5,2.7,3.9,3.9c5.2,4.8,11.4,8.1,17.6,11.3c2.3,1.2,2.8,1,4-1.3c4.3-8.3,7-17.1,8.9-26.2
		c0.5-2.4,1-4.8,1.4-7.2c0.6-4.3-0.3-8.3-2.5-11.9c-1.9-3.1-4.1-6.1-6.3-9.5c-1.4,4.1-2.6,7.7-3.9,11.3c-1.2,3.6-3.2,4.3-6.4,2.3
		c-0.9-0.5-1.7-1-2.9-1.7c1,4.7,2,9,2.9,13.2c-0.1,0-0.2,0.1-0.3,0.1c-1-3.4-2.1-6.8-3.1-10.3C220.5,317.4,220.7,321.3,221.7,325.5z
		 M93.4,276c-4.6-3.1-5.7-3-9.5,0.6c-0.1,0.1-0.2,0.1-0.2,0.2c-1,1.1-1.9,2.3-2.9,3.4c-0.2-0.2-0.4-0.3-0.6-0.5
		c0.6-1.3,1.3-2.5,2-3.9c-0.5,0-0.8,0-1.1,0c-3.8,0.7-7.5,1.4-11.3,2c-2.3,0.4-3.4,1.6-4,3.8c-1.6,6.1-2.2,12.4-2.2,18.6
		c0,4.2,0.4,8.4,0.6,12.5c0.1,1.3,0.9,2.1,2.1,2c3-0.2,6.1-0.1,9-0.8c5.5-1.3,10.9-2.8,16.3-4.6c2.4-0.8,4.6-2.2,6.7-3.6
		c1.3-0.8,2.3-2,3.4-3.1c-0.1-0.1-0.2-0.3-0.2-0.4c-1.4,0.1-2.9,0.2-4.3,0.3c-2.4,0-3.5-0.9-3.5-3.4c-0.1-6.9,0.7-13.7,3.1-20.2
		c0.3-0.9,0.6-1.8,1-2.8c-1.8-0.5-1.8-0.5-6.3,2C92.2,277.5,92.8,276.8,93.4,276z M261.7,302.7c1.7,2.5,5.4,5.4,9.2,6.8
		c8.2,3.2,16.6,5.3,25.5,5.4c1.7,0,2.4-0.6,2.6-2.4c1.2-10.5,0.6-20.9-1.9-31.1c-0.5-2.1-1.4-2.9-3.6-3.3c-3.2-0.6-6.4-1.1-9.6-1.7
		c-0.9-0.2-1.8-0.4-3.2-0.7c0.9,1.7,1.5,3,2.2,4.3c-0.5-0.1-0.8-0.3-1.1-0.6c-1.5-1.5-3-3.1-4.5-4.6c-0.5-0.5-1.5-1-2-0.8
		c-1.8,0.6-3.5,1.4-5.4,2.2c0.7,0.9,1.2,1.6,1.7,2.3c-1.6-0.8-2.4-2.7-4.7-2.2c0.2,0.5,0.3,0.8,0.4,1.2c0.8,2.3,1.9,4.6,2.3,7
		c0.8,4.6,1.3,9.3,1.6,14c0.2,3.4-1.1,4.4-4.4,4.2C265.1,302.6,263.5,302.7,261.7,302.7z M88.5,123.2c0.2-0.3,0.4-0.4,0.5-0.6
		c2-4.1,2.9-8.4,2.8-12.9c0-0.7-0.8-1.8-1.5-2.1c-9.4-4.2-19.3-6-29.6-5c-1.7,0.2-2.2,0.8-1.9,2.5c0.7,3.5,1.4,7.1,2.3,10.5
		c1.8,6.3,3.5,12.7,5.7,18.9c2.9,8.2,8.5,14,17,16.7c0-0.6,0.1-1.5,0-2.2c-0.4-2.3-1-4.5-1.5-6.7c-0.4-1.8,0.2-3.4,1.9-3.8
		c2-0.5,2.1-1.6,1.8-3.2c-0.1-0.5-0.1-1,0-1.6c0.1-1.7-0.4-3-1.5-4.3c-1-1.1-2-2.4-2.9-3.5c0.1-0.1,0.2-0.2,0.3-0.3
		c1.3,1.4,2.6,2.9,4.1,4.5c0.5-1.4,0.8-2.4,1.2-3.5c1-2.6,1-2.6-1.2-4.4c-1.5-1.2-3-2.5-4.5-3.7c0.1-0.1,0.2-0.2,0.3-0.3
		C83.9,119.9,86.1,121.5,88.5,123.2z M151,63.9c1.2-1.1,2.4-2.1,3.5-3.2c0.6-0.6,1.1-1.2,1.4-1.9c0.8-2.5,1.3-5,2-7.5
		c0.1,0,0.2,0.1,0.3,0.1c-0.6,2.9-1.3,5.9-1.9,8.8c2.2,1.2,4.3,2.4,6.5,3.6c0.2-0.4,0.4-0.6,0.5-0.8c2.6-6.5,6.6-12,11-17.3
		c1.9-2.3,1.9-3.2,0.5-5.8c-3.4-6-8-11-12.8-15.8c-0.1-0.1-0.3-0.1-0.5-0.2c-2.8,3.2-5.6,6.5-8.4,9.7c-4.8,5.6-9.5,11.3-12.8,18
		c-1.9,4-3.2,8.1-3,12.5c0,0.7,0.3,1.6,0.8,2.1c3.5,2.9,6.2,6.2,7.1,10.8c2.4-5.3,6-10,5.9-16.2c0-2.3,0.6-4.7,1-7
		c0.1,0,0.3,0,0.4,0.1C151.9,57.2,151.5,60.6,151,63.9z M122.2,76.6c0.3-0.5,0.5-0.9,0.8-1.2c2.9-3.4,2.9-2,1.2-6.4
		c-0.8-1.9-1.5-3.8-2.3-5.7c0.1,0,0.2-0.1,0.3-0.1c1.4,2.8,2.7,5.6,4,8.2c3.2-1.7,1.6-4.4,1.9-6.7c0.3,0.7,0.7,1.5,1.2,2.6
		c1-3.7,3.3-3.8,6.1-2.7c0.5-5.8,2.3-11,4.6-16.1c0.2-0.5-0.2-1.6-0.6-2c-3-2.2-5.9-4.9-9.3-6.4c-6.2-2.6-12.7-4.3-19.1-6.5
		c-1.3-0.4-2,0.1-2.4,1.3c-2,7.1-4.5,14.1-5.1,21.5c-0.1,1.4,0.3,3,1,4.1c0.7,1.1,2.1,1.8,3.3,2.5c4.8,2.7,8.9,6.1,12,10.6
		C120.5,74.7,121.3,75.5,122.2,76.6z M202.4,23.7c-0.6,0.4-0.9,0.6-1.2,0.9c-4.5,4.7-8.9,9.4-12.2,15.1c-1.7,2.9-1.7,3.6,0.5,6.1
		c4.5,5.3,8.6,10.8,10.7,17.6c0.1,0.4,0.3,0.7,0.4,1.2c1.6-0.9,3.1-1.9,4.7-2.6c1.6-0.7,1.9-1.8,1.4-3.4c-0.7-2.6-1.2-5.3-1.7-8
		c0.4,0.3,0.6,0.7,0.7,1c0.7,2.5,1.3,5,2.1,7.6c0.1,0.4,0.5,1,0.8,1.2c1,0.5,2.1,0.8,3.3,1.2c-0.1-1.3-0.3-2.4-0.4-3.5
		c-0.1-1.1-0.3-2.2-0.4-3.2c0.2-0.1,0.4-0.1,0.6-0.2c-0.4,8.5,4.3,15.1,7.9,22.7c0.7-4.4,2.9-7.4,5.7-10c0.4-0.3,0.7-1,0.6-1.5
		c-0.1-2.7-0.1-5.4-0.6-7.9c-1.1-5.2-3.7-9.7-6.8-13.8C213.4,37.2,207.9,30.5,202.4,23.7z M242,75.5c0.4-0.5,0.7-0.9,1.1-1.4
		c3.4-4.7,7.6-8.4,12.8-11.2c0.8-0.4,1.8-0.9,2.3-1.6c0.8-1,1.4-2.3,1.7-3.6c0.2-0.9,0-2-0.2-2.9c-1.6-6.4-3.2-12.9-4.8-19.3
		c-0.5-1.9-1.2-2.2-3.1-1.6c-4.5,1.4-9,2.8-13.5,4.2c-5.2,1.6-9.8,4.3-13.8,7.9c-1.1,1-1.4,2-0.9,3.4c1.2,3.1,2.4,6.2,3.3,9.3
		c0.6,2.1,0.9,4.3,1.3,6.6c2.2-0.9,4.3-2.4,6.4-0.2c0.3-0.2,0.6-0.4,1-0.8c-0.7,2.6,0.2,4.4,1.9,6c1.1-2.2,2.1-4.3,3.1-6.3
		c-0.1,1.2-0.5,2.3-0.9,3.3c-1.8,4.3-1.8,4.3,1.6,7.5C241.5,75,241.7,75.2,242,75.5z M281.4,118.2c0.1,0.1,0.1,0.2,0.2,0.3
		c-1.6,1.3-3.2,2.6-4.7,4c-0.3,0.3-0.6,1-0.4,1.4c0.5,1.5,1.2,2.9,1.9,4.5c1-0.9,1.9-1.7,2.9-2.6c-0.2,0.9-0.7,1.4-1.2,2.1
		c-0.5,0.8-1.3,1.5-1.4,2.3c-0.2,2.5-0.1,5.1-0.1,7.6c3.4,1.1,4.3,2.4,3.6,5.2c-0.3,1.4-0.8,2.8-1,4.3c-0.2,1.4-0.2,2.9-0.4,4.4
		c0.2,0.1,0.3,0.2,0.5,0.2c2.5-1.8,5.3-3.4,7.5-5.6c2-2,3.5-4.5,5-7c2.4-3.9,4.1-8.2,5.2-12.7c1.7-7,3.5-14,5.1-21
		c0.5-2,0-2.7-2-3.1c-1.5-0.2-3-0.4-4.5-0.3c-3,0.2-6.1,0.2-9,0.8c-4.6,1-9.2,2.4-13.7,3.6c-1.5,0.4-2.1,1.4-2,3
		c0.1,1.8,0,3.6,0.4,5.3c0.5,2.5,1.4,4.9,2.1,7.6C277.7,120.9,279.6,119.6,281.4,118.2z M88,230.7c-3-2.1-3.7-2.3-5.8-1.4
		c-8.3,3.5-14.6,9-17.8,17.6c-1.8,4.6-3.3,9.4-4.8,14.1c-1.2,3.7-1.4,7.6-1,11.5c0.3,3.6,1.7,4.8,5.2,4.5c4.9-0.5,9.9-1,14.8-1.8
		c2.9-0.4,5.7-1.2,8.2-3c-1.9-1.5-3.6-2.8-5.3-4.2c-2.3-2-2.6-3.5-1-6c0.9-1.4,2.1-2.7,3.3-3.9c2.7-2.6,5.5-5,8.3-7.6
		c-0.9-0.7-1.7-1.2-2.3-1.9c-1.2-1.3-2.4-1.8-3.8-0.5c0,0-0.2-0.1-0.4-0.1c0.6-0.5,1.2-1,1.7-1.4c-1.5-2.5-3.4-3.7-6.2-1.9
		c0.1-0.3,0.2-0.4,0.3-0.5c1.9-1.6,1.9-1.6,0.7-3.6c-1.1-1.8-0.9-2.8,0.6-4.3C84.3,234.4,86.1,232.6,88,230.7z M151.3,301.2
		c-3.5,3-6.7,5.7-9.9,8.5c-0.4,0.4-0.6,1.5-0.4,2.1c0.4,1.5,1,2.9,1.6,4.3c5.2,12.3,13.2,22.4,23.9,30.4c1.1,0.8,2,0.8,2.8-0.3
		c0.3-0.5,0.7-0.9,1-1.4c4.7-7.5,6.2-15.8,5.9-24.5c0-0.6-0.4-1.3-0.8-1.8c-1.5-2-3-3.9-4.6-5.8c-0.3-0.3-0.8-0.7-1.1-0.6
		c-2,0.5-3.4-0.4-4.9-1.6c-2.1-1.7-4.2-3.4-6.5-5.3c0.1,2.8,0.3,5.3,0.4,7.8c-0.7-2.2-1.3-4.5-1.5-6.8c-0.2-3.4-2.9-4.8-5-7.2
		c-0.2,3-0.3,5.6-0.5,8.2c-0.1,0-0.3,0-0.4,0C151.3,305.2,151.3,303.4,151.3,301.2z M208.5,65.2c-5.1,3.6-9.9,7.2-14.9,10.5
		c-2.6,1.7-3.6,3.8-3.4,6.9c0.3,4.2-0.3,8.2-2.2,12.1c-1,2-0.8,2.2,1,3.4c4.6,3,8.7,6.6,12.1,10.8c1,1.2,2,2.2,3.1,3.4
		c0.8,0.9,1.6,0.9,2.6,0.2c4.3-3,7.6-6.8,9.4-11.8c1.8-5.1,1.3-10.3,0.4-15.5C215.4,78,211.5,72,208.5,65.2z M156.2,65
		c-2.2,4.7-4.4,9.1-6.3,13.5c-2.6,5.9-3.4,12.2-2.4,18.6c1,6.4,4.7,11.5,10.1,15.1c1.2,0.8,2.2,0.7,3.2-0.4c0.6-0.7,1.2-1.4,1.9-2.1
		c4.1-4.5,8-9.3,13.6-12.2c1.1-0.6,1-1.4,0.6-2.4c-0.8-2.3-1.8-4.5-2.2-6.8c-0.4-2.3-0.2-4.8-0.2-7.2c0-1.6-0.4-3-1.7-4
		C167.3,73.1,161.9,69.2,156.2,65z M211.8,307c-0.2,0-0.4,0-0.6,0c0-2.1,0-4.2,0-6.7c-2.1,1.9-4,3.4-4.7,5.8c-0.6,2.3-1,4.6-1.5,6.9
		c-0.1,0-0.2,0-0.3,0c0.1-2.1,0.2-4.3,0.3-6.7c-2.3,1.8-4.2,3.3-6.2,4.8c-1.5,1.1-3,1.9-4.5,0.9c-2.2,2.6-4.2,5.1-6.3,7.6
		c-0.4,0.5-0.8,1.2-0.8,1.8c0.2,3.7,0.3,7.4,0.9,11.1c0.9,4.9,3.1,9.4,5.9,13.6c0.8,1.2,1.7,1.4,2.8,0.4c0.6-0.6,1.3-1.1,1.9-1.6
		c11.3-8.9,18.7-20.4,23.5-33.8c0.4-1.2,0.1-1.8-0.8-2.6c-2.7-2.4-5.3-4.9-7.9-7.4c-0.5-0.5-1-1.1-1.5-1.7c-0.2,0-0.3,0.1-0.5,0.1
		C211.8,302,211.8,304.5,211.8,307z M134.1,69.5c-2.1,2.5-4,5-6.1,7.3c-2.3,2.5-3.9,5.4-5,8.6c-1.2,3.6-0.6,6.7,2.3,9.4
		c2.5,2.4,4.8,5,6.8,7.8c4.3,5.9,4.7,12.6,3.9,19.5c-0.3,2.2,0.3,2.8,2.5,2.7c4-0.2,8.1-0.3,12.1-0.5c1.8-0.1,3.2-0.8,4.1-2.4
		c1-1.7,2-3.5,3-5.2c0.7-1.2,0.6-2.1-0.6-2.9c-3.1-2.1-5.5-4.8-7.5-7.9c-2.4-3.7-4.8-7.4-7.3-11c-1-1.5-1.5-3.1-1.5-4.9
		c-0.1-3.7,0-7.4-0.3-11.1C140.1,74.7,137.9,71.6,134.1,69.5z M230.5,69.5c-4.2,2.4-6.3,5.9-6.5,10.6c-0.1,2.6,0,5.2,0,7.9
		c-0.1,2.7-0.5,5.3-2.1,7.6c-1.5,2.2-2.9,4.4-4.3,6.6c-2.9,4.6-6,9-10.5,12.1c-0.9,0.6-1,1.2-0.4,2.1c1.1,1.8,2.1,3.6,3.1,5.5
		c1,1.7,2.5,2.5,4.4,2.5c3.8,0.1,7.5,0.3,11.3,0.5c2.7,0.1,3.2-0.2,3.1-2.9c0-0.6,0-1.3-0.1-1.9c-0.8-6.8,0.6-13.1,4.9-18.6
		c1.9-2.4,3.9-4.7,6.1-6.8c2.8-2.7,3.3-5.5,2.2-9.2C239.7,78.8,234.4,74.7,230.5,69.5z M272.4,250.5c1.6,1.4,3.1,2.5,4.3,3.8
		c2.7,2.8,5.4,5.5,7.9,8.4c1.4,1.6,1.1,2.8-0.4,4.3c-0.6,0.6-1.2,1.1-1.9,1.7c-1.7,1.4-3.4,2.8-5.2,4.2c0.6,0.3,1,0.5,1.4,0.7
		c7.2,2.6,14.8,3.1,22.4,3.5c1.6,0.1,2.8-0.9,3-2.5c0.2-3.2,0.5-6.5,0.1-9.7c-0.8-7-3.5-13.4-6.3-19.8c-3.1-7.1-8.6-11.9-15.5-15.1
		c-2-0.9-3.9-1-5.6,0.8c1.8,1.9,3.7,3.7,5.5,5.6c1.6,1.6,1.7,2.1,0.5,4.1c-0.6,1-1.2,1.9-1.9,2.9c0.5,0.5,0.9,0.8,1.4,1.3
		c-2.8-0.5-5.1,0.9-5.2,2.7C275.3,248.4,274,249.4,272.4,250.5z M193.3,128.5c0.3-0.4,0.5-0.7,0.6-1c1.1-2.2,2.2-4.4,3.2-6.6
		c0.6-1.2,1.4-1.8,2.8-1.2c1.3,0.6,2.7,1.2,4,1.8c1.1,0.5,2.2,0.9,3.4,1.4c-0.1-0.8-0.1-1.3-0.2-1.7c0-0.3-0.1-0.5-0.3-0.7
		c-4-7.4-8.7-14.2-15.7-19.1c-6.2-4.4-11.8-4.3-17.9,0.2c-6.7,4.9-11.5,11.4-15.3,18.7c-0.4,0.7-0.4,1.6-0.7,2.9
		c2.4-1.1,4.3-2,6.3-2.9c2.7-1.2,3.2-1,4.4,1.6c1,2.2,2.1,4.4,3.3,6.8c3.8-3.6,7.4-6.9,11.1-10.4C186,121.7,189.6,125.1,193.3,128.5
		z M216,277.3c0-3.9-0.8-7.5-2.1-10.9c-0.5-1.4-1.4-1.9-2.9-1.9c-2.7,0-5.3-0.1-8-0.3c-2.2-0.1-4.3,0-5.5,2.1c-1.8,3-3.7,6-5.3,9.1
		c-2.2,4.2-3.1,8.8-1.9,13.4c1.3,5.3,3,10.4,4.5,15.6c0.2,0.5,0.6,1,0.8,1.5c0.5,0.9,1.2,1.1,2,0.4c3.4-3.1,6.9-6,10-9.2
		C213.1,291.5,215.9,284.8,216,277.3z M155.7,264.2c0,0.1,0,0.2,0,0.4c-0.8,0-1.7-0.2-2.3,0.1c-0.9,0.4-2.1,0.9-2.4,1.7
		c-4.2,10.4-2.6,19.9,4.2,28.7c3.1,4.1,7,7.3,10.9,10.6c1.9,1.6,2.5,1.4,3.6-0.8c0.2-0.3,0.3-0.7,0.4-1c1.2-3.9,2.5-7.8,3.6-11.7
		c1.2-4.2,1.3-8.5,0.2-12.7c-1.4-5.1-4.4-9.4-7.3-13.6c-0.6-0.9-2.2-1.4-3.4-1.5C160.7,264,158.2,264.2,155.7,264.2z M109.5,86.2
		c-1.2,3.2-2.9,6.5-3.2,10.2c-0.4,5,0.1,9.7,3.4,13.9c3.2,4.1,4.5,9.1,4.8,14.4c0.1,1.8,0.5,3.5,0.8,5c5.8-1.6,11.4-3.2,17-4.8
		c1.3-0.4,1.8-1.2,1.9-2.4c0.2-1.7,0.3-3.4,0.5-5.2c0.4-6.4-1.3-12.2-5.7-16.9c-2.6-2.8-5.7-5.3-8.8-7.5
		C116.8,90.5,113.2,88.5,109.5,86.2z M254.9,86.3c-4.5,3-9.1,5.8-13.4,8.9c-9.2,6.6-13,15.6-11.2,26.9c0.4,2.3,0.9,2.8,3.2,3.2
		c4.5,0.7,8.9,1.9,13,3.9c0.8,0.4,1.6,0.6,2.7,1.1c0.3-1.6,0.7-3,0.8-4.5c0.3-5.5,1.6-10.7,4.8-15.2c3.1-4.4,4.3-9.1,3.5-14.4
		C257.9,92.5,256.9,89.1,254.9,86.3z M135,226.7c0.2,0,0.4,0,0.6,0c0.2-1.1,0.4-2.3,0.6-3.4c0.3-3.5,2.2-5.5,5.6-6.2
		c2.9-0.6,5.6,0,8.2,1.2c3.1,1.5,6.1,3,9.2,4.4c3.9,1.8,7.9,2.7,12.2,2.6c7.6-0.1,15.2,0.1,22.8-0.1c2.4,0,4.8-0.5,7-1.3
		c4.5-1.6,8.8-3.7,13.2-5.5c1.7-0.7,3.5-1.3,5.4-1.6c5.1-0.8,8.6,2.1,8.9,7.3c0,0.8,0.3,1.7,0.6,2.9c0.6-0.8,1-1.1,1.2-1.6
		c0.9-2.1,1.8-4.2,2.7-6.4c0.9-2.2,0.4-4.2-1-6.1c-2.1-3-6.3-4.4-9.8-3.3c-4.3,1.4-8.6,3-12.9,4.3c-4.1,1.3-8.2,3-12.5,3.5
		c-6.2,0.7-12.6,0.3-18.8,0.6c-8.6,0.4-16.8-1.2-24.7-4.8c-3.3-1.5-6.8-2.5-10.2-3.5c-4.2-1.2-7.7,0.1-10.6,3.3
		c-1.1,1.2-1.5,2.7-1.4,4.4C131.5,220.9,133.3,223.8,135,226.7z M296.2,185.3c-2.7,0-5.1-0.1-7.5,0c-3.5,0.2-6.7,1.4-8.8,4.4
		c-0.9,1.4-1.7,2.9-2.3,4.4c-1.3,3-3.4,5.3-6.5,6.5c-2.3,0.9-3.7,2.6-4.1,5c-0.9,5.2-2.8,9.9-4.7,14.8c-1.7,4.4-1.7,3.2,2.1,5.6
		c4.4,2.8,8.1,1.7,11.9-0.8c0.9-0.6,1.8-1.2,2.7-1.9c4.8-4,7.1-9.3,8.8-15.1C290,200.5,291.5,192.5,296.2,185.3z M68.9,185.1
		c1.5,3.5,3,6.6,4.1,9.9c1.6,4.9,2.9,9.8,4.4,14.7c2.3,8.1,6.8,14.3,14.8,17.6c2.1,0.8,3.9,0.9,5.8-0.2c1.2-0.7,2.6-1.2,3.8-1.8
		c1.7-0.8,2-1.3,1.2-3.1c-2.5-5.4-4.4-11-5.4-16.8c-0.4-2.1-1.6-3.7-3.6-4.5c-4.1-1.5-6.3-4.5-7.6-8.4c-1.3-3.7-3.9-5.9-7.5-6.6
		C75.5,185.3,72.1,185.3,68.9,185.1z M131.7,267.9c-0.2-0.1-0.6-0.2-0.9-0.3c-4.1-0.8-8.1-1.8-11.7-4.2c-0.8-0.5-2.6-0.3-3.5,0.2
		c-2.8,2-5.9,3.8-8,6.5c-5.8,7.2-9,15.6-9.7,24.9c-0.3,3.4-0.3,3.5,3.1,3.1c6-0.7,11.6-2.5,16.5-6.3
		C125.2,285.6,129.6,277.5,131.7,267.9z M232.6,267.9c1.3,3.5,2.4,6.9,3.8,10.2c0.6,1.5,1.6,2.9,2.6,4.3c1.1,1.5,2.4,2.9,3.5,4.4
		c5.7,7.8,13.7,10.8,22.9,11.4c1,0.1,1.6-0.4,1.5-1.5c-0.1-0.9-0.2-1.9-0.3-2.8c-0.5-4.3-1.1-8.5-2.8-12.5
		c-3.1-7-6.7-13.5-13.7-17.4c-1.9-1.1-3.6-1.2-5.6-0.2c-2.8,1.3-5.7,2.3-8.6,3.4C234.9,267.6,233.8,267.6,232.6,267.9z M175.6,73.1
		c1.3-1.9,2.5-3.7,3.9-5.4c1.3-1.6,3.5-1.9,5-0.7c0.7,0.6,1.3,1.4,1.8,2.1c0.9,1.3,1.8,2.6,2.7,4c3.1-2.2,5.9-4.3,8.8-6.4
		c1-0.7,1.4-1.7,1.1-2.9c-0.5-1.7-0.9-3.5-1.6-5.1c-3-6.6-7.5-11.9-13.1-16.4c-1.8-1.4-2.9-1.5-4.6-0.1
		c-7.1,5.6-12.4,12.4-14.8,21.3c-0.2,0.6,0.1,1.6,0.5,1.9C168.6,68.1,172.1,70.6,175.6,73.1z M133.8,194.7c-0.4-0.5-0.6-0.8-0.8-1
		c-3.7-2.7-7.4-5.5-11.1-8.2c-1.7-1.2-3.7-1.4-5.7-1c-4.8,0.9-9.7,1.8-14.5,2.6c-5,0.9-9.5,0.1-12.7-4.4c-0.1-0.1-0.1-0.2-0.2-0.2
		c-0.5-0.2-1.1-0.7-1.5-0.6c-0.4,0.1-0.7,0.9-0.7,1.4c-0.1,1.4-0.1,2.8,0.1,4.2c0.4,4.5,2.2,8.1,6.1,10.6c4.9,3.2,10.3,5.4,16.2,5.8
		c4.3,0.3,8.7,0.6,12.6-1.5C125.6,200.2,129.5,197.4,133.8,194.7z M229.8,308.4c0.2-0.4,0.3-0.6,0.3-0.8c1.9-6.6,3.8-13.2,5.6-19.7
		c1-3.4,0.8-6.9-0.7-10.1c-1.5-3.1-3-6.2-4.7-9.2c-0.5-0.9-1.7-1.7-2.8-2c-2.3-0.6-4.7-0.8-7.1-1.1c-4.2-0.5-4.8,0.3-3.6,4.3
		c1,3.5,1.3,7,0.4,10.5c-0.9,3.4-1.8,6.8-2.6,10.2c-0.5,1.8-0.1,3.6,0.9,5.1C219.1,301,224.2,304.8,229.8,308.4z M230.6,194.4
		c4.5,2.9,8.6,5.6,12.8,8.2c0.5,0.3,1.1,0.5,1.6,0.6c10.2,2.3,19.6,0.3,28.1-5.9c2.5-1.8,4.1-4.2,4.6-7.3c0.3-2,0.5-4,0.5-5.9
		c0-0.8-0.4-1.6-0.7-2.9c-1.1,1-1.9,1.6-2.5,2.4c-2.5,3-5.7,4.3-9.5,3.8c-4.8-0.6-9.5-1.5-14.2-2.4c-3.1-0.6-6.3-1.2-9.1,0.8
		C238.5,188.5,234.7,191.4,230.6,194.4z M128.5,284c0.1,0.9,0,1.9,0.3,2.8c1.9,6.8,3.9,13.7,5.8,20.5c0.3,0.9,0.8,0.8,1.4,0.4
		c4.5-3,8.8-6.1,12.1-10.4c2.2-2.8,2.9-5.9,1.5-9.3c-2.7-6.5-3.2-13.1-1.3-19.9c0.6-2.2-0.1-2.9-2.4-2.7c-2.7,0.2-5.4,0.5-8.1,0.8
		c-1.6,0.2-2.9,1-3.6,2.4c-1.2,2.2-2.4,4.3-3.5,6.5C129.2,277.8,128.5,280.8,128.5,284z M95.9,101.8c0,4.2,0.1,8.2,0,12.3
		c-0.1,4.2-1,8.3-3.3,11.8c-3.3,4.9-2.2,10-0.8,15.1c0.1,0.4,0.4,0.9,0.7,1.2c1.8,1.6,3.7,3.2,5.6,4.8c0.7-1.1,1.2-2,1.7-2.8
		c2.6-4.3,5.7-8.2,10-10.9c2.4-1.5,3.3-3.6,3.3-6.3c-0.1-7-2.1-13.3-6-19.2C104.5,103.9,100.7,102.4,95.9,101.8z M266.4,146.7
		c0.6-0.3,1.1-0.6,1.6-0.9c6.2-3.9,8.3-11.6,4.7-18.5c-3.6-6.9-4.7-14.1-4.1-21.7c0.1-0.8,0.2-1.6-0.1-2.3c-0.2-0.5-0.9-1.2-1.3-1.1
		c-3.2,0.4-6.2,1.3-8.4,4c-4.4,5.4-6.6,11.6-7.3,18.5c-0.4,4.2,0.8,7.4,4.6,9.7c3.1,1.8,5.4,4.6,7.3,7.7
		C264.4,143.6,265.3,145.1,266.4,146.7z M277.8,239.7c-2.4-2.8-4.4-5.1-6.4-7.4c-2.4-2.7-5.5-4.2-8.9-5c-2.3-0.6-4.2-0.2-5.6,1.8
		c-1.6,2.3-3.8,3.7-6.2,4.9c-1.3,0.6-2.6,1.3-3.9,1.9c-1.9,0.9-2,1.2-0.9,3.1c1,1.8,2.2,3.5,3.1,5.3c1.1,2,2.6,3.2,4.9,3.4
		c1.3,0.1,2.7,0.5,4,0.7c9.8,1.5,6.2,2.5,14.1-3.5c0.1-0.1,0.3-0.2,0.4-0.3C274.5,242.8,276.4,241,277.8,239.7z M86.3,238.8
		c3.6,3.9,7.5,7.1,11.7,10.2c0.7,0.5,1.8,0.5,2.7,0.4c3.6-0.5,7.1-1.2,10.6-1.8c1.6-0.3,2.8-1,3.6-2.4c1.2-2.2,2.6-4.3,3.9-6.4
		c0.9-1.6,0.8-2-0.9-2.7c-0.4-0.2-0.8-0.3-1.2-0.4c-3.8-1.4-7-3.5-9.4-6.8c-1.1-1.5-2.7-2-4.4-1.7c-2.9,0.5-5.7,1.5-7.9,3.5
		C92.2,233.2,89.4,235.9,86.3,238.8z M124.2,229.5c0.1,0,0.1,0,0.2,0c0.2,3.4,0.4,6.9,0.7,10.3c0.2,3.5,0.4,7,0.6,10.5
		c0.3,3.9,2.4,6.6,5.9,6.5c2.8-0.1,5.6-1,8.3-1.8c1.5-0.5,1.8-2.1,1.6-3.6c-0.9-5.8-1.6-11.6-5-16.7c-0.7-1-1.1-2.3-1.6-3.4
		c-2.5-5.4-4.9-10.9-7.4-16.3c-0.3-0.7-1.3-1-1.9-1.5c-0.5,0.7-1,1.4-1.3,2.1c-0.2,0.3-0.1,0.7-0.1,1.1
		C124.2,221,124.2,225.3,124.2,229.5z M240.6,219c-0.1-0.8-0.1-2.3-0.4-3.7c-0.1-0.6-0.8-1.4-1.4-1.6c-0.4-0.1-1.3,0.6-1.6,1.1
		c-1.1,2-2.1,4-3,6c-2.3,5.1-4.2,10.5-7,15.4c-2.8,5-3.1,10.4-4.1,15.8c-0.3,1.6,0.6,2.8,2.1,3.3c1.9,0.6,3.8,1.3,5.7,1.6
		c4.6,0.7,7.8-2.2,7.9-6.9c0.1-2.5,0.3-5,0.4-7.5C239.8,234.9,240.2,227.2,240.6,219z M280.5,264.7c-2.6-3.9-6.2-6.5-9.5-9.3
		c-5.2-4.5-11.2-6.2-18-5.9c-1.2,0.1-1.8,0.6-2,1.7c-0.6,2.6-1.3,5.2-2,7.7c-0.3,1.2,0,2,0.9,2.7c3.2,2.9,6.4,5.9,9.6,8.8
		c0.4,0.4,0.8,0.8,1.2,0.9c3.4,0.6,6.8,1.2,10-0.6C273.9,268.9,277.1,266.8,280.5,264.7z M177.3,284.5c-0.2,0.5-0.4,0.9-0.5,1.2
		c-1.5,5.6-3.1,11.2-4.4,16.8c-0.2,1,0,2.2,0.4,3.2c1.1,2.4,2.4,4.8,3.8,7c1,1.5,2.4,2.8,3.8,4.1c1.2,1,2.5,0.9,3.8-0.1
		c3.4-2.7,5.4-6.4,7.2-10.1c1.1-2.2,1-4.5,0.2-6.9c-0.5-1.3-0.8-2.7-1.2-4c-1-3.6-1.9-7.3-2.9-11c-0.6,0.3-1.1,0.5-1.4,0.8
		c-0.6,0.5-1.2,1-1.7,1.6c-1.7,1.7-2.7,1.7-4.4,0C179.3,286.2,178.3,285.4,177.3,284.5z M83.9,264.3c2.9,2,5.4,3.9,8.2,5.5
		c1.9,1.1,4.1,1.8,6.3,2.2c2.3,0.3,4.9,0.3,6.9-1.4c3.4-3,6.6-6.1,9.9-9.2c0.5-0.4,0.7-1.4,0.6-2c-0.6-2.7-1.3-5.5-2.1-8.2
		c-0.2-0.6-1.1-1.4-1.7-1.4c-4.8-0.4-9.5,0.3-13.8,2.7C92.7,255.4,88.6,260,83.9,264.3z M227.2,224.4c-0.3-2.8-1.5-4.7-4-5.6
		c-4.8-1.8-10.4,1.4-11.2,6.5c-0.2,1.2-0.2,2.5-0.1,3.8c0.5,7.6,1,15.1,1.6,22.7c0.2,2.5,0.7,5.1,1.2,7.6c0.2,1.2,1.1,2,2.4,2.1
		c1.4,0.1,1.9-0.9,2.3-2c0.1-0.4,0.2-0.8,0.3-1.2c1.6-6.9,3.2-13.8,4.8-20.8C225.5,233,226.3,228.7,227.2,224.4z M153,228.2
		c-0.2-1.7-0.2-2.9-0.5-3.9c-1.2-4.2-5.8-6.9-10.1-5.8c-3.7,0.9-5.4,4.1-4.4,8.9c1.7,7.9,3.5,15.7,5.3,23.6c0.7,2.9,1.4,5.8,2.2,8.6
		c0.2,0.7,1.1,1.7,1.7,1.7c0.7,0,1.8-0.6,2.3-1.3c0.6-0.9,0.9-2,1-3.1C151.4,247.2,152.2,237.4,153,228.2z M66.4,149.5
		c0.5,2.8,1.2,5.5,1.5,8.3c0.7,7.4,2.5,14.5,5.6,21.3c1.9,4.1,5,6.1,9.3,6.7c0.9,0.1,1.4-0.2,1.6-1c1-4,1.3-8-0.2-12
		c-0.6-1.5-0.7-3.3-0.6-4.9c0.1-2.2,0.6-4.4,1.1-6.6c0.2-1.3,0-2.4-1.1-3.2c-1.4-1-2.7-2.2-4.1-3.1C75.4,152,71,150.3,66.4,149.5z
		 M298.4,149.8c-0.3-0.1-0.4-0.2-0.5-0.2c-0.6,0.1-1.1,0.2-1.7,0.3c-6,1.4-11,4.6-15.7,8.5c-0.3,0.2-0.5,0.8-0.5,1.2
		c0.2,1.7,0.5,3.3,0.8,4.9c0.7,3.5,0.7,6.9-0.9,10.3c-0.4,0.9-0.6,2.1-0.5,3.2c0.1,2.1,0.4,4.3,0.7,6.4c0.2,1.1,0.7,1.7,2,1.2
		c1.6-0.6,3.3-1.1,4.8-1.8c1-0.5,2-1.3,2.7-2.2c2.4-3.5,4.1-7.4,4.9-11.6c1.1-5.4,1.9-10.9,2.9-16.3
		C297.7,152.3,298.1,151.1,298.4,149.8z M151.3,261.9c20.7,0,41.4,0,62,0c0.3-4.8-1.9-7.2-6.5-7.2c-12.2,0.1-24.5,0.2-36.7,0.2
		c-4.4,0-8.9-0.2-13.3-0.2C153.1,254.9,150.6,258.1,151.3,261.9z M239.7,291.4c-0.5,1.8-1.1,3.4-1.4,5c-0.1,0.9,0.2,2.1,0.7,2.7
		c4,3.9,6.3,8.7,7.7,14c0.9,3.3,2.7,5.6,5.5,7.3c1.7,1.1,3.5,2,5.3,3c1.8,1,2.2,0.8,3.1-1.1c1.4-3.2,2.8-6.4,4.2-9.6
		c1.4-3.5,1.7-2.7-1.2-5.6c-3.6-3.6-7.6-6.4-12.7-7.2c-2.8-0.4-4.5-2.2-6.4-3.9C243.1,294.3,241.5,292.9,239.7,291.4z M125.1,291.5
		c-3.5,2.7-6.7,5.2-10,7.7c-0.4,0.3-0.9,0.6-1.4,0.7c-2.5,0.7-5.1,1.3-7.6,2c-0.8,0.2-1.6,0.6-2.2,1.1c-2.1,1.8-4.1,3.6-6.1,5.5
		c-0.4,0.4-0.6,1.3-0.4,1.7c1.6,4.1,3.3,8.1,5.1,12.2c0.6,1.5,1.4,1.7,2.9,1c2.3-1.1,4.6-2.2,6.8-3.5c1.1-0.7,2.1-1.8,2.8-2.9
		c0.6-1,0.9-2.3,1.2-3.5c1.5-5.4,3.7-10.4,7.9-14.4c0.6-0.6,1.1-1.3,1.5-2c0.2-0.4,0.4-1,0.3-1.5
		C125.8,294.2,125.4,292.9,125.1,291.5z M87.4,142.2c0,0.5-0.1,0.6-0.1,0.8c0.1,0.4,0.1,0.8,0.2,1.2c0.9,4.2,1,8.4-0.1,12.6
		c-0.8,2.9-1.4,5.8-2,8.7c-0.5,2.3-0.9,4.6,0.1,6.8c1.7,3.6,3.6,7.2,5.6,10.7c1.4,2.4,3.8,3.3,6.5,2.6c2.7-0.6,3-1.1,1.9-3.6
		c-2.5-6-4.1-12.2-3.6-18.8c0.2-3.3,0.5-6.7,0.8-10c0.3-4.1-2.1-8.4-5.8-10.1C89.8,142.6,88.6,142.5,87.4,142.2z M277.3,142.6
		c-4.1-0.2-8.4,3.3-8.8,7.3c-0.3,2.6-0.4,5.3-0.1,8c0.5,5.5,1,11-0.6,16.4c-0.9,2.9-1.9,5.8-2.9,8.6c-0.5,1.4-0.1,2.1,1.3,2.6
		c3.3,1.1,6,0.2,7.7-2.8c1.9-3.3,3.6-6.7,5.3-10.2c0.4-0.8,0.5-1.9,0.4-2.7c-0.7-4.7-1.6-9.5-2.3-14.2c-0.3-2.1-0.5-4.3-0.5-6.5
		C276.6,146.9,277,144.8,277.3,142.6z M182.3,147.8c-3.5-3.1-6.9-6.2-10.5-9.3c-1,2.5-2.1,4.7-2.9,7.1c-0.3,0.8,0.1,2,0.6,2.8
		c3.5,5,7.2,9.9,10.8,14.8c1.5,2,2.3,2,3.9,0c3.6-4.8,7.2-9.6,10.7-14.5c0.6-0.9,1-2.4,0.7-3.3c-0.7-2.3-1.8-4.4-2.8-6.7
		C189.3,141.6,186,144.6,182.3,147.8z M183.2,250.8c0.2-1.2,0.6-2.3,0.7-3.5c0.2-2.9,1.9-4.5,4.5-5c1.8-0.3,3.8-0.7,5.4-0.1
		c2.8,1.1,5.3,1.1,8.2,0.4c2.2-0.5,4.7,0.2,7.1,0.5c1.4,0.2,2-0.4,2-1.7c0-1.8,0-3.6-0.1-5.3c0-0.7-0.4-1.4-0.6-2
		c-0.6,0.3-1.4,0.4-1.9,0.9c-2.8,2.2-5.8,3-9.3,1.8c-2.3-0.7-4.6-0.5-6.7,0.6c-2.2,1.2-4.5,1.2-6.8,1c-2.2-0.2-4.5-0.3-6.7,0
		c-2.5,0.3-4.8,0.2-7-0.9c-2.2-1.2-4.5-1.4-6.8-0.6c-3.2,1.1-6.1,0.4-8.7-1.6c-0.5-0.3-0.9-0.7-1.4-1c-0.8-0.4-1.3-0.1-1.4,0.8
		c-0.1,2-0.2,4.1-0.2,6.1c0,1.9,0.5,2.2,2.5,1.9c0.7-0.1,1.4-0.3,2.2-0.4c2.5-0.3,5-0.5,7.4,0.7c1,0.5,1.8,0.4,2.7-0.2
		c3-1.9,6.2-1.5,9.3-0.3c2.6,1,3.1,3.3,3.3,5.8c0,0.4,0.2,0.7,0.2,1.1C181.2,250.8,181.8,251.3,183.2,250.8z M176.8,263.8
		C176.8,263.8,176.8,263.8,176.8,263.8c-1.7,0-3.4,0-5,0.1c-1.6,0-2,0.6-1.5,2.1c2.4,6.9,5.8,13.3,10.6,19c1.3,1.5,1.6,1.5,2.9,0
		c4.6-5.5,7.9-11.8,10.4-18.5c0.7-1.9,0.4-2.5-1.7-2.6C187.3,263.7,182.1,263.8,176.8,263.8z M182.3,146.3c2.8-2.9,5.4-5.7,8.1-8.4
		c2.4-2.5,2.6-3.7,1-6.8c-2-3.9-5.3-6.7-8.3-9.8c-0.2-0.2-1.1-0.3-1.3-0.1c-3.5,3.5-7.2,6.9-9.2,11.6c-0.5,1.3-0.4,2.6,0.5,3.7
		C176,139.7,179.1,142.9,182.3,146.3z M234.6,265.3c1.7-0.4,4.1-0.7,6.2-1.6c9.2-4.1,10.9-16.3,3.4-23.8c-0.6-0.6-1.4-0.9-2.1-1.4
		c-0.3,0.8-0.6,1.6-0.8,2.4c-0.1,0.3-0.1,0.6-0.2,0.9c-0.2,2.9-0.6,5.9-0.7,8.9c-0.1,5.2-3.3,8.3-8.5,7.8c-2-0.2-4-0.6-6-1.1
		c-4.2-0.9-4.5-0.7-5.5,3.5c-0.5,2.1-0.3,2.6,1.8,2.9C226,264.3,229.9,264.7,234.6,265.3z M123,238c-3.5,1.9-4.9,4.6-6.2,7.5
		c-3.6,8.6,2.4,18.9,11.6,19.3c5,0.2,10-0.8,14.9-1.3c1.1-0.1,1.5-0.9,1.2-1.9c-0.3-1.2-0.7-2.3-1.1-3.4c-0.4-1.3-1.3-1.7-2.7-1.3
		c-2.6,0.7-5.3,1.3-7.9,1.7c-4.4,0.6-7.9-2.4-8.3-6.8c-0.2-2.5-0.3-5-0.6-7.5C123.7,242.3,123.3,240.3,123,238z M182.4,71.6
		c-1.5,2.2-2.7,4.1-4,6c-3.7,5-4,10.7-0.6,15.9c1.6,2.5,7.1,3,8.6,0.7c2.8-4.1,4-8.6,1.8-13.2C186.7,77.7,184.4,74.8,182.4,71.6z
		 M167.5,148.5c-1.9,2.4-3.5,4.5-5,6.6c-0.2,0.2-0.1,0.7,0.1,1c2.5,3.9,5.3,7.4,9.7,9.4c1.8,0.8,3.5,0.5,5-0.7
		c0.9-0.7,1.2-1.7,0.5-2.6C174.3,157.6,171,153.2,167.5,148.5z M197.3,148.6c-0.9,1-1.7,1.9-2.4,2.8c-2.5,3.4-5,6.8-7.5,10.2
		c-1,1.4-0.7,2.7,0.8,3.5c1.6,0.9,3.2,0.7,4.8-0.1c4-2,6.7-5.2,9-8.9c0.2-0.4,0.2-1.3-0.1-1.7C200.6,152.7,199.1,150.9,197.3,148.6z
		 M155.3,222.9c-0.1,3.6,0.2,6.6,1.6,9.3c0.5,1,1.5,2,2.4,2.4c2,1,4.2,0.8,6.2,0.1c0.6-0.2,1.3-1,1.3-1.5c0-1.7-0.1-3.4-0.4-5.1
		c0-0.4-0.4-0.9-0.8-1C162.4,225.7,159,224.4,155.3,222.9z M168.8,230.8c0,1.5-0.3,3.2,1.5,3.9c2.1,0.8,4.4,1.4,6.6,1.9
		c1.3,0.3,2.7-0.1,3.4-1.4c1.1-2,1.5-4.2,0.8-6.5c-0.2-0.6-0.9-1.3-1.4-1.3c-3.1-0.1-6.2,0-9.2,0.1c-1.1,0-1.6,0.7-1.6,1.7
		C168.8,229.7,168.8,230.2,168.8,230.8z M209.4,223.4c-0.5,0-0.8-0.1-1.1,0c-3,1.1-6,2.2-8.9,3.4c-0.5,0.2-1.1,0.9-1.2,1.5
		c-0.3,1.5-0.4,3.1-0.3,4.7c0,0.6,0.7,1.6,1.1,1.6c2,0.2,4.1,0.4,6.1,0.2c0.9-0.1,2-1.1,2.5-2C209.1,229.9,209.4,226.8,209.4,223.4z
		 M195.8,230.6C195.8,230.6,195.8,230.6,195.8,230.6c0-0.6,0.2-1.3,0-1.9c-0.2-0.5-0.7-1.2-1.1-1.2c-3.1-0.1-6.3-0.1-9.4-0.1
		c-1.3,0-2,0.9-2,2.2c0.1,1.6,0.2,3.2,0.7,4.8c0.5,1.8,1.7,2.5,3.6,2.1c2.1-0.5,4.2-1.2,6.3-1.7c1.3-0.3,1.8-1.1,1.9-2.3
		C195.8,231.8,195.8,231.2,195.8,230.6z M154.1,253c3.1,0,6,0,8.8,0c2.5,0,3.9-1.7,3.5-4.2c-0.4-2.1-1.4-3.8-3.5-4.4
		c-2.5-0.7-5-0.6-7.2,1c-0.3,0.3-0.6,0.8-0.7,1.2C154.7,248.6,154.4,250.7,154.1,253z M210.5,252.9c-0.3-2.1-0.5-4.1-0.8-6
		c-0.2-1.3-1.1-2.2-2.4-2.4c-1.4-0.2-2.8-0.4-4.2-0.3c-3.5,0.2-5.7,3.4-4.7,6.7c0.3,0.8,1.2,1.9,1.9,2
		C203.7,253,207,252.9,210.5,252.9z M171,203.5c1.2-0.4,2.3-0.8,3.4-1.3c0.9-0.4,1.2-1.3,0.8-2.3c-1-2.5-2.5-4.6-4.8-6
		c-2.5-1.5-5.4,0-5.7,2.9C164.5,200.6,167,203.3,171,203.5z M193.7,203.3c3.4,0,5.7-2,6.2-4.9c0.3-1.9-0.6-3.9-2.1-4.7
		c-1.5-0.8-2.9-0.5-4.5,1c-0.8,0.8-1.7,1.6-2.3,2.6c-0.9,1.3-2.4,2.7-1.5,4.3C190.3,203.2,192.3,203.1,193.7,203.3z M173.2,252.5
		c0,0.1,0,0.1,0,0.2c1.1,0,2.2,0,3.3,0c1,0,1.7-0.6,1.7-1.6c0-1.2,0-2.5,0-3.7c-0.1-1.7-0.9-2.8-2.6-3.1c-1.3-0.3-2.7-0.4-4-0.5
		c-1.2-0.1-2,0.5-2.2,1.8c-0.3,1.9-0.5,3.7-0.8,5.6c-0.1,0.9,0.2,1.4,1.2,1.4C171,252.5,172.1,252.5,173.2,252.5z M191.4,252.5
		c0.6,0,1.6,0,2.5,0c1.9,0,2.2-0.2,2-2.2c-0.1-1.3-0.3-2.6-0.6-3.9c-0.4-2.2-0.9-2.7-3.2-2.8c-3.4-0.2-5.5,1.3-5.7,4.2
		C186.1,252.7,186.2,252.8,191.4,252.5z"/>
	<path class="st0" d="M160.6,136.3c-0.5,1.1-0.9,2.2-1.5,3.2c-0.2,0.3-1,0.6-1.1,0.5c-0.4-0.3-0.9-1-0.8-1.3
		c0.3-1.1,0.8-2.1,1.4-3.1c0.2-0.3,0.9-0.6,1.2-0.4C160.1,135.3,160.3,135.8,160.6,136.3z"/>
	<path class="st0" d="M108.7,157.1c-0.9-1-1.8-1.9-2.6-2.9c-0.2-0.2,0.1-0.9,0.3-1.2c0.1-0.1,0.8,0,1.1,0.2c0.8,0.6,1.7,1.3,2.4,2
		c0.3,0.3,0.5,0.9,0.4,1.2C110.1,156.7,109.5,156.8,108.7,157.1z"/>
	<path class="st0" d="M104.2,163c2.4-0.2,4.1,0.8,5.6,2.1C108.5,166.9,105.5,165.8,104.2,163z"/>
	<path class="st0" d="M110.3,173.6c-1.9,1.5-3.6,1.3-4.9-0.6C107.1,171.8,108.3,172,110.3,173.6z"/>
	<path class="st0" d="M115.4,147.8c-0.7-0.9-1.5-1.7-2.1-2.7c-0.2-0.3,0.1-0.9,0.2-1.4c0.5,0.1,1.3,0,1.5,0.3c0.6,1,0.9,2.2,1.3,3.3
		C116,147.5,115.7,147.6,115.4,147.8z"/>
	<path class="st0" d="M125.4,141.8c-1.8-1.2-2-2.3-0.7-4.3C126.6,138.8,126.8,140.3,125.4,141.8z"/>
	<path class="st0" d="M149,134.4c0.8,2.7,0.4,3.6-1.7,4C146.3,136.6,146.8,135.5,149,134.4z"/>
	<path class="st0" d="M136.3,139.1c-1.3-1.5-0.5-3-0.3-4.5C138.1,136.1,138.2,137.8,136.3,139.1z"/>
	<path class="st0" d="M205,134.6c0.5,0.5,1,0.7,1.2,1.1c0.5,0.9,1,1.9,1.2,2.9c0.1,0.4-0.3,1-0.6,1.3c-0.2,0.2-0.9,0-1-0.2
		c-0.6-1.2-1.1-2.5-1.5-3.7C204.2,135.7,204.7,135.2,205,134.6z"/>
	<path class="st0" d="M254.9,165.3c1.3-1.7,3.7-2.6,5.3-2C259.5,165.6,256.3,166.8,254.9,165.3z"/>
	<path class="st0" d="M255.2,156.8c-0.2-0.1-0.6-0.3-0.8-0.6c-0.1-0.2,0-0.7,0.2-0.9c0.8-0.8,1.7-1.5,2.6-2.2c0.2-0.2,0.7-0.1,1,0
		c0.2,0.1,0.4,0.5,0.3,0.7C258.5,155.1,256.5,156.8,255.2,156.8z"/>
	<path class="st0" d="M259.3,173.1c-1.6,1.9-3.3,2.1-4.9,0.5C256.4,172,257.6,171.8,259.3,173.1z"/>
	<path class="st0" d="M239.3,142c-1.1-1.5-1.3-2.7-0.4-3.7c0.3-0.3,0.9-0.6,1.3-0.6c0.2,0,0.5,0.7,0.6,1.1
		C241,140.1,240.5,141.2,239.3,142z"/>
	<path class="st0" d="M215.7,134.4c2.1,1.1,2.4,1.8,1.8,3.9C215.5,138.5,214.8,137.2,215.7,134.4z"/>
	<path class="st0" d="M248.7,147.5c-0.3-2.7,0.3-3.7,2.4-3.8C251.7,145.5,250.9,146.8,248.7,147.5z"/>
	<path class="st0" d="M228.8,134.4c0.1,1.4,0.2,2.5,0.1,3.6c0,0.4-0.4,0.7-0.6,1.1c-0.4-0.2-0.8-0.4-1.1-0.7
		C226.5,137.3,227,136.1,228.8,134.4z"/>
	<path class="st0" d="M161.8,172.3c-1.1,0.4-1.9,0.9-2.6,1c-3.2,0.4-6,1.7-8.5,3.7c-3.4,2.6-7.1,3.9-11.4,3.4
		c-3.6-0.4-6.1-2.1-7.7-5.4c-1.9-4.1-2.8-8.3-1.9-12.8c0.4-2.2,1-2.6,3.1-2.9c1.9-0.2,3.7-0.4,5.6-0.8c2.1-0.4,4,0,5.7,1.1
		c5.3,3.5,10.6,7.1,15.9,10.7C160.6,170.7,161,171.4,161.8,172.3z M141.1,178.1c2.3,0.1,4-0.8,4.9-2.9c1.8-4.1,1.7-8.1-1.1-11.8
		c-1.3-1.8-3.2-2.5-5.4-2.2c-4.2,0.6-7.6,4.7-7.3,8.9C132.7,174.6,136.4,178.1,141.1,178.1z M149.7,166.1c-1.3,3.1-1.5,5.9,0.1,8.8
		c2.3-1.3,4.4-2.5,6.7-3.8C154.1,169.4,152,167.8,149.7,166.1z"/>
	<path class="st0" d="M235.5,165.3c-0.2,4.3-1,7.7-3.1,10.8c-2.5,3.7-6.1,5.1-10.5,4.4c-2.7-0.4-5.1-1.6-7.3-3.1
		c-2.9-2.1-6-3.8-9.7-4c-0.6,0-1.2-0.7-1.8-1c0.4-0.6,0.7-1.3,1.2-1.7c5.3-3.6,10.7-7.2,16-10.7c1.9-1.3,4.1-1.8,6.4-1.3
		c1.9,0.4,3.8,0.6,5.7,0.8c1.4,0.2,2.2,0.8,2.4,2.2C235.1,162.9,235.4,164.4,235.5,165.3z M223.6,178.1c4,0,7.4-2.5,8.4-6.2
		c1-3.7-0.6-7.7-3.9-9.7c-3.3-2-6.9-1.1-9,2.1c-2.1,3.4-2.2,6.9-0.5,10.5C219.7,177.2,220.9,178.1,223.6,178.1z M208.1,171.1
		c2.4,1.3,4.5,2.5,6.8,3.8c1.5-3,1.4-5.8,0.1-8.8C212.7,167.8,210.5,169.4,208.1,171.1z"/>
	<path class="st0" d="M178.8,111.9c-1.4-0.9-2.2-1.9-2.3-3.3c0-0.5,0.3-1.3,0.5-1.3c0.5-0.1,1.2,0.1,1.5,0.5
		C179.7,109,179.4,110.4,178.8,111.9z"/>
	<path class="st0" d="M186,111.7c-1.4-2.2-0.7-4,1.6-4.4C188.6,109.2,188,110.6,186,111.7z"/>
	<path class="st0" d="M172.2,117.6c-0.5-0.9-1.1-1.9-1.5-2.8c-0.1-0.3,0.2-1,0.4-1c0.4-0.1,0.9,0,1.3,0.3c1.3,1,1,2.1,0.4,3.3
		C172.6,117.4,172.4,117.5,172.2,117.6z"/>
	<path class="st0" d="M192.6,117.6c-1.5-1.9-1.4-3-0.2-3.7c0.9-0.6,1.7-0.3,1.5,0.8C193.8,115.7,193.1,116.6,192.6,117.6z"/>
	<path class="st0" d="M140.7,175.7c-2.1-1.1-2.6-2.6-2.6-4.2c0-2,0.2-4,0.5-6.1c0-0.4,0.5-0.8,0.8-1.2c0.5,0.3,1.2,0.6,1.4,1
		c0.4,1.1,0.9,2.3,0.8,3.4C141.5,170.9,141.1,173.1,140.7,175.7z"/>
	<path class="st0" d="M224.3,175.8c-1.1-3.7-2.2-7-0.5-10.5c0.2-0.5,0.9-0.7,1.4-1.1c0.3,0.5,0.8,0.9,0.9,1.5c0.6,3.2,1.1,6.3-1,9.2
		C225,175.1,224.8,175.3,224.3,175.8z"/>
</g>
</svg>
